<svg xmlns="http://www.w3.org/2000/svg" viewBox="0 0 178 32"><defs><style>.cls-1{fill:#ec1c24;fill-rule:evenodd;}</style></defs><path d="M59.519,29.06308H57.06556L46.6763,11.48987l.025,1.32784c.02543.50445.03549.92377.03549,1.27207v14.9733H44.67692V8.8597h3.18068l9.72295,16.44755-.03026-1.40372c-.0202-.55535-.03034-1.03964-.03034-1.46387V8.8597h1.999V29.06308ZM74.54792,28.76H72.24586q-.13627-.712-.27287-2.6908a5.38362,5.38362,0,0,1-5.24021,3.1149,5.26177,5.26177,0,0,1-3.86192-1.333,4.34542,4.34542,0,0,1-1.34763-3.20048,4.49224,4.49224,0,0,1,1.92314-3.73084q1.92392-1.45355,6.54262-1.459.62113,0,1.984.06055a8.61963,8.61963,0,0,0-.27238-2.56442,2.284,2.284,0,0,0-1.16115-1.262,4.92074,4.92074,0,0,0-2.33235-.4746q-3.53667,0-4.1094,2.696L61.947,17.54775q.78027-4.1426,6.593-4.14481,3.08984,0,4.38219,1.36815,1.29489,1.37063,1.29231,4.74023v6.35087a11.7945,11.7945,0,0,0,.33334,2.8978ZM71.973,21.30849c-.94879-.06059-1.666-.09085-2.1604-.09085a8.46855,8.46855,0,0,0-4.28128.90369,2.90158,2.90158,0,0,0-1.52438,2.64026,2.449,2.449,0,0,0,.82286,1.86295,3.32653,3.32653,0,0,0,2.36752.77245,4.40659,4.40659,0,0,0,3.45311-1.52474,5.22482,5.22482,0,0,0,1.3529-3.58431c0-.27761-.01014-.60576-.03034-.97945ZM90.6266,28.76h-2.181V19.15815A3.87549,3.87549,0,0,0,87.542,16.245a3.08805,3.08805,0,0,0-2.18582-.84274,3.74349,3.74349,0,0,0-2.9736,1.42355,5.59235,5.59235,0,0,0-1.20641,3.74573V28.76H78.874V13.82709H81.0248v2.7561q1.81734-3.18,4.70993-3.18024a4.76666,4.76666,0,0,1,4.45767,2.81182,11.89767,11.89767,0,0,1,.4342,3.90232V28.76Zm10.00591.4241a5.68435,5.68435,0,0,1-4.80118-2.2819A9.13531,9.13531,0,0,1,94.11,21.24307a8.149,8.149,0,0,1,1.93843-5.70479,6.244,6.244,0,0,1,4.82126-2.13533,5.88459,5.88459,0,0,1,4.87666,2.24633,8.73637,8.73637,0,0,1,1.7822,5.60876,8.39382,8.39382,0,0,1-1.9235,5.70962,6.27159,6.27159,0,0,1-4.97258,2.21644Zm.18162-1.90813a3.70183,3.70183,0,0,0,2.9736-1.46906A7.18683,7.18683,0,0,0,104.984,21.233a6.6747,6.6747,0,0,0-1.25682-4.51822,3.85155,3.85155,0,0,0-2.94331-1.40372,3.71224,3.71224,0,0,0-2.93292,1.41864,6.89364,6.89364,0,0,0-1.19663,4.48792q0,3.2564,1.19663,4.65461a3.7575,3.7575,0,0,0,2.96322,1.40372Z"/><path d="M127.56536,8.55662V28.76h-6.20969V20.91492h-4.695V28.76h-6.20929V8.55662h6.20929v7.45147h4.695V8.55662ZM140.837,23.33813l5.48274.36846a6.50272,6.50272,0,0,1-2.49409,3.79135,8.55511,8.55511,0,0,1-5.41668,1.56514,8.33468,8.33468,0,0,1-6.06316-2.19636,7.283,7.283,0,0,1-2.26178-5.4469,8.13087,8.13087,0,1,1,16.25068.12114c0,.207-.00491.4948-.015.858H136.26351a3.94443,3.94443,0,0,0,.50485,2.12531,2.03787,2.03787,0,0,0,1.80215.69178,2.068,2.068,0,0,0,2.26653-1.87791Zm-.42382-3.90759a2.692,2.692,0,0,0-.60576-2.02436,2.13517,2.13517,0,0,0-1.46918-.5199q-2.0751,0-2.07478,2.54427ZM163.78167,28.76h-5.60353a9.76472,9.76472,0,0,1-.21227-2.10515,5.408,5.408,0,0,1-4.83619,2.40824,5.34265,5.34265,0,0,1-3.9883-1.35813,4.3383,4.3383,0,0,1-1.32257-3.1149,4.46438,4.46438,0,0,1,2.16563-3.84659q2.16611-1.4693,7.67871-1.767V18.633a1.57412,1.57412,0,0,0-.44925-1.3278,2.21773,2.21773,0,0,0-1.31291-.32811q-2.02911,0-2.26645,1.666l-5.39157-.515q1.15089-4.725,7.845-4.72518a14.33725,14.33725,0,0,1,3.33683.36359,5.57307,5.57307,0,0,1,2.40824,1.13089,3.96,3.96,0,0,1,1.1914,1.62529,11.74261,11.74261,0,0,1,.30272,3.30171V25.8319a8.37954,8.37954,0,0,0,.45448,2.9281Zm-6.11852-7.02736q-3.75587.394-3.75615,2.403c0,.90365.4948,1.35286,1.48921,1.35286a2.411,2.411,0,0,0,1.60541-.56022,3.29389,3.29389,0,0,0,.66152-2.47362v-.722ZM175.70054,13.706v3.81638h-2.99871v5.54816c0,.76231.14114,1.21152.42905,1.35282a1.90447,1.90447,0,0,0,.88345.21714,7.1534,7.1534,0,0,0,1.6862-.24217V28.6086a18.25078,18.25078,0,0,1-3.42776.333,5.78163,5.78163,0,0,1-4.00319-1.17121,4.84681,4.84681,0,0,1-1.27734-3.7304l.01521-1.76208V17.52241H164.766V13.706h2.24143l.09085-4.90728,5.60353-.09081V13.706Z"/><path class="cls-1" d="M7.52,7.86353H28.91614V29.25H7.52V7.86353ZM26.93856,9.84577H9.49735V27.268H26.93856V9.84577ZM4.27706,4.73224V23.1653H2.29946V2.75H22.70673V4.73224Z"/></svg>